{
    "asset": {
        "version": "2.0",
        "generator": "CreatorEngine regression fixture (hand-authored)"
    },
    "scene": 0,
    "scenes": [
        {
            "nodes": [
                0
            ]
        }
    ],
    "nodes": [
        {
            "mesh": 0,
            "name": "ProbeQuad"
        }
    ],
    "meshes": [
        {
            "name": "ProbeQuadMesh",
            "primitives": [
                {
                    "attributes": {
                        "POSITION": 1,
                        "NORMAL": 2,
                        "TEXCOORD_0": 3
                    },
                    "indices": 0,
                    "mode": 4,
                    "material": 0
                }
            ]
        }
    ],
    "materials": [
        {
            "name": "ProbeMaterial",
            "pbrMetallicRoughness": {
                "baseColorTexture": {
                    "index": 0
                },
                "metallicFactor": 0.0,
                "roughnessFactor": 1.0
            }
        }
    ],
    "textures": [
        {
            "source": 0,
            "sampler": 0
        }
    ],
    "samplers": [
        {
            "magFilter": 9728,
            "minFilter": 9728,
            "wrapS": 10497,
            "wrapT": 10497
        }
    ],
    "images": [
        {
            "uri": "Textures/Probe.png",
            "name": "ProbeImage"
        }
    ],
    "buffers": [
        {
            "uri": "MultiFileProbe.bin",
            "byteLength": 140
        }
    ],
    "bufferViews": [
        {
            "buffer": 0,
            "byteOffset": 0,
            "byteLength": 12,
            "target": 34963
        },
        {
            "buffer": 0,
            "byteOffset": 12,
            "byteLength": 48,
            "target": 34962
        },
        {
            "buffer": 0,
            "byteOffset": 60,
            "byteLength": 48,
            "target": 34962
        },
        {
            "buffer": 0,
            "byteOffset": 108,
            "byteLength": 32,
            "target": 34962
        }
    ],
    "accessors": [
        {
            "bufferView": 0,
            "componentType": 5123,
            "count": 6,
            "type": "SCALAR"
        },
        {
            "bufferView": 1,
            "componentType": 5126,
            "count": 4,
            "type": "VEC3",
            "min": [
                -1.0,
                -1.0,
                0.0
            ],
            "max": [
                1.0,
                1.0,
                0.0
            ]
        },
        {
            "bufferView": 2,
            "componentType": 5126,
            "count": 4,
            "type": "VEC3"
        },
        {
            "bufferView": 3,
            "componentType": 5126,
            "count": 4,
            "type": "VEC2"
        }
    ]
}
