{
  "asset": { "version": "2.0", "generator": "CreatorEngine PBR-W1 fixture (hand-authored)" },
  "scene": 0,
  "scenes": [ { "nodes": [ 0 ] } ],
  "nodes": [ { "mesh": 0, "name": "NormalPair" } ],
  "meshes": [
    {
      "name": "NormalPair",
      "primitives": [
        {
          "attributes": { "POSITION": 1, "NORMAL": 2, "TEXCOORD_0": 3 },
          "indices": 0,
          "material": 0
        },
        {
          "attributes": { "POSITION": 1, "NORMAL": 2, "TEXCOORD_0": 3 },
          "indices": 4,
          "material": 1
        }
      ]
    }
  ],
  "materials": [
    {
      "name": "WithNormal",
      "pbrMetallicRoughness": {
        "baseColorFactor": [ 0.8, 0.8, 0.8, 1.0 ],
        "metallicFactor": 0.0,
        "roughnessFactor": 0.5
      },
      "normalTexture": { "index": 0, "scale": 1.0 }
    },
    {
      "name": "NoNormal",
      "pbrMetallicRoughness": {
        "baseColorFactor": [ 0.8, 0.8, 0.8, 1.0 ],
        "metallicFactor": 0.0,
        "roughnessFactor": 0.5
      }
    }
  ],
  "textures": [ { "source": 0 } ],
  "images": [ { "uri": "Textures/Normal.png" } ],
  "accessors": [
    { "bufferView": 0, "byteOffset": 0, "componentType": 5123, "count": 6, "type": "SCALAR", "max": [ 3 ], "min": [ 0 ] },
    { "bufferView": 1, "byteOffset": 0, "componentType": 5126, "count": 8, "type": "VEC3", "max": [ 1.1, 0.5, 0.0 ], "min": [ -1.1, -0.5, 0.0 ] },
    { "bufferView": 2, "byteOffset": 0, "componentType": 5126, "count": 8, "type": "VEC3", "max": [ 0.0, 0.0, 1.0 ], "min": [ 0.0, 0.0, 1.0 ] },
    { "bufferView": 3, "byteOffset": 0, "componentType": 5126, "count": 8, "type": "VEC2", "max": [ 1.0, 1.0 ], "min": [ 0.0, 0.0 ] },
    { "bufferView": 0, "byteOffset": 12, "componentType": 5123, "count": 6, "type": "SCALAR", "max": [ 7 ], "min": [ 4 ] }
  ],
  "bufferViews": [
    { "buffer": 0, "byteOffset": 0, "byteLength": 24, "target": 34963 },
    { "buffer": 0, "byteOffset": 24, "byteLength": 96, "target": 34962 },
    { "buffer": 0, "byteOffset": 120, "byteLength": 96, "target": 34962 },
    { "buffer": 0, "byteOffset": 216, "byteLength": 64, "target": 34962 }
  ],
  "buffers": [ { "uri": "NormalPair.bin", "byteLength": 280 } ]
}
