{
  "asset": { "version": "2.0", "generator": "CreatorEngine PBR-W7 fixture (hand-authored)" },
  "scene": 0,
  "scenes": [ { "nodes": [ 0 ] } ],
  "nodes": [ { "mesh": 0, "name": "SamplerModes" } ],
  "meshes": [
    {
      "name": "SamplerModes",
      "primitives": [
        { "attributes": { "POSITION": 1, "NORMAL": 2, "TEXCOORD_0": 3 }, "indices": 0, "material": 0 },
        { "attributes": { "POSITION": 1, "NORMAL": 2, "TEXCOORD_0": 3 }, "indices": 4, "material": 1 },
        { "attributes": { "POSITION": 1, "NORMAL": 2, "TEXCOORD_0": 3 }, "indices": 5, "material": 2 }
      ]
    }
  ],
  "materials": [
    {
      "name": "WrapRepeat",
      "pbrMetallicRoughness": {
        "baseColorTexture": { "index": 0 },
        "metallicFactor": 0.0,
        "roughnessFactor": 0.6
      }
    },
    {
      "name": "WrapClampS",
      "pbrMetallicRoughness": {
        "baseColorTexture": { "index": 1 },
        "metallicFactor": 0.0,
        "roughnessFactor": 0.6
      }
    },
    {
      "name": "WrapMirrorPoint",
      "pbrMetallicRoughness": {
        "baseColorTexture": { "index": 2 },
        "metallicFactor": 0.0,
        "roughnessFactor": 0.6
      }
    }
  ],
  "textures": [
    { "source": 0, "sampler": 0 },
    { "source": 0, "sampler": 1 },
    { "source": 0, "sampler": 2 }
  ],
  "samplers": [
    { "name": "RepeatLinear", "magFilter": 9729, "minFilter": 9987, "wrapS": 10497, "wrapT": 10497 },
    { "name": "ClampSRepeatT", "magFilter": 9729, "minFilter": 9987, "wrapS": 33071, "wrapT": 10497 },
    { "name": "MirrorNearest", "magFilter": 9728, "minFilter": 9984, "wrapS": 33648, "wrapT": 33648 }
  ],
  "images": [ { "uri": "Quadrants.png" } ],
  "accessors": [
    { "bufferView": 0, "byteOffset": 0, "componentType": 5123, "count": 6, "type": "SCALAR", "max": [ 3 ], "min": [ 0 ] },
    { "bufferView": 1, "byteOffset": 0, "componentType": 5126, "count": 12, "type": "VEC3", "max": [ 1.65, 0.5, 0.0 ], "min": [ -1.65, -0.5, 0.0 ] },
    { "bufferView": 2, "byteOffset": 0, "componentType": 5126, "count": 12, "type": "VEC3", "max": [ 0.0, 0.0, 1.0 ], "min": [ 0.0, 0.0, 1.0 ] },
    { "bufferView": 3, "byteOffset": 0, "componentType": 5126, "count": 12, "type": "VEC2", "max": [ 2.0, 2.0 ], "min": [ 0.0, 0.0 ] },
    { "bufferView": 0, "byteOffset": 12, "componentType": 5123, "count": 6, "type": "SCALAR", "max": [ 7 ], "min": [ 4 ] },
    { "bufferView": 0, "byteOffset": 24, "componentType": 5123, "count": 6, "type": "SCALAR", "max": [ 11 ], "min": [ 8 ] }
  ],
  "bufferViews": [
    { "buffer": 0, "byteOffset": 0, "byteLength": 36, "target": 34963 },
    { "buffer": 0, "byteOffset": 36, "byteLength": 144, "target": 34962 },
    { "buffer": 0, "byteOffset": 180, "byteLength": 144, "target": 34962 },
    { "buffer": 0, "byteOffset": 324, "byteLength": 96, "target": 34962 }
  ],
  "buffers": [ { "uri": "SamplerModes.bin", "byteLength": 420 } ]
}
